HIERARCHY
ROOT Hips
{
 OFFSET 0.000000 0.000000 0.000000
 CHANNELS 6 Xposition Yposition Zposition Yrotation Xrotation Zrotation
 JOINT Chest
 {
  OFFSET 0.000000 12.953391 -0.028419
  CHANNELS 3 Yrotation Xrotation Zrotation
  JOINT Chest2
  {
   OFFSET 0.000000 10.280254 0.051622
   CHANNELS 3 Yrotation Xrotation Zrotation
   JOINT Chest3
   {
    OFFSET 0.000000 9.287180 0.000000
    CHANNELS 3 Yrotation Xrotation Zrotation
    JOINT Chest4
    {
     OFFSET 0.000000 9.287180 0.000000
     CHANNELS 3 Yrotation Xrotation Zrotation
     JOINT Neck
     {
      OFFSET 0.000000 13.296264 0.000000
      CHANNELS 3 Yrotation Xrotation Zrotation
      JOINT Head
      {
       OFFSET 0.000000 8.959264 0.099003
       CHANNELS 3 Yrotation Xrotation Zrotation
       End Site
       {
        OFFSET 0.000000 17.121337 0.039303
       }
      }
     }
     JOINT RightCollar
     {
      OFFSET -3.193511 7.451388 0.000000
      CHANNELS 3 Yrotation Xrotation Zrotation
      JOINT RightShoulder
      {
       OFFSET -15.792092 0.000000 0.000000
       CHANNELS 3 Yrotation Xrotation Zrotation
       JOINT RightElbow
       {
        OFFSET -31.151839 0.000000 0.000000
        CHANNELS 3 Yrotation Xrotation Zrotation
        JOINT RightWrist
        {
         OFFSET -25.536298 0.000000 0.002321
         CHANNELS 3 Yrotation Xrotation Zrotation
         End Site
         {
          OFFSET -19.133213 0.000000 0.000000
         }
        }
       }
      }
     }
     JOINT LeftCollar
     {
      OFFSET 3.193511 7.451388 0.000000
      CHANNELS 3 Yrotation Xrotation Zrotation
      JOINT LeftShoulder
      {
       OFFSET 15.792092 0.000000 0.000000
       CHANNELS 3 Yrotation Xrotation Zrotation
       JOINT LeftElbow
       {
        OFFSET 31.151839 0.000000 0.000000
        CHANNELS 3 Yrotation Xrotation Zrotation
        JOINT LeftWrist
        {
         OFFSET 25.536298 0.000000 0.002321
         CHANNELS 3 Yrotation Xrotation Zrotation
         End Site
         {
          OFFSET 19.133213 0.000000 0.000000
         }
        }
       }
      }
     }
    }
   }
  }
 }
 JOINT RightHip
 {
  OFFSET -10.745749 0.139252 0.014209
  CHANNELS 3 Yrotation Xrotation Zrotation
  JOINT RightKnee
  {
   OFFSET 0.000000 -43.743899 -0.006071
   CHANNELS 3 Yrotation Xrotation Zrotation
   JOINT RightAnkle
   {
    OFFSET 0.000000 -43.214199 0.089931
    CHANNELS 3 Yrotation Xrotation Zrotation
    JOINT RightToe
    {
     OFFSET 0.000000 -9.699830 19.151588
     CHANNELS 3 Yrotation Xrotation Zrotation
     End Site
     {
      OFFSET 0.000000 -1.292898 4.893873
     }
    }
   }
  }
 }
 JOINT LeftHip
 {
  OFFSET 10.745749 0.139252 0.014209
  CHANNELS 3 Yrotation Xrotation Zrotation
  JOINT LeftKnee
  {
   OFFSET 0.000000 -43.743899 -0.006071
   CHANNELS 3 Yrotation Xrotation Zrotation
   JOINT LeftAnkle
   {
    OFFSET 0.000000 -43.214199 0.089931
    CHANNELS 3 Yrotation Xrotation Zrotation
    JOINT LeftToe
    {
     OFFSET 0.000000 -9.699830 19.151588
     CHANNELS 3 Yrotation Xrotation Zrotation
     End Site
     {
      OFFSET 0.000000 -1.292898 4.893873
     }
    }
   }
  }
 }
}
MOTION
Frames: 16
Frame Time: 0.016667
652.572716	-367.545603	-38.007695	-87.204532	-55.712521	56.084154	-0.151005	8.541866	-0.673425	-0.307681	13.302340	0.126208	-0.809885	17.611428	-0.239401	-1.049447	21.271436	-0.392160	-3.247287	46.025095	-3.675701	-6.659478	57.720751	-7.641681	4.954805	15.955239	5.135742	-2.540806	-14.651718	44.578255	-7.501358	1.070778	30.526733	4.617648	7.821166	34.214436	-2.953711	15.257928	-6.250510	-3.168675	-5.691092	-41.524378	4.412321	-1.991551	-34.005164	19.623527	-4.162882	-30.777787	-3.850457	-18.714043	5.016186	0.433423	22.842127	2.356273	14.589926	30.307656	7.267112	13.712380	20.082528	5.909231	2.177696	-14.637848	1.584420	-1.169892	11.769577	1.943145	-21.621870	10.300717	-4.992212	-21.510626	4.373970	-2.239315
653.360450	-368.465336	-38.268318	-86.578022	-56.098198	55.557640	0.062139	8.070407	-0.834279	0.031076	13.047869	0.815613	-0.387177	17.676598	0.530336	-0.654715	21.355663	0.372178	-3.371850	46.100319	-3.375698	-7.524027	57.624414	-6.546205	5.288919	16.010055	5.807476	-2.463680	-15.299200	44.779752	-7.377086	0.637046	30.838343	4.682121	7.595960	34.051678	-2.841684	15.306003	-5.490163	-2.442952	-6.116953	-41.475414	5.389876	-2.424370	-33.985507	20.225997	-4.723170	-30.752932	-3.837822	-18.942088	4.477044	-0.285068	23.528295	2.219338	13.304667	31.840010	6.344151	12.876697	21.758977	5.828577	3.128140	-14.672454	0.694926	-0.695142	11.172465	1.294547	-20.429926	9.714383	-4.741096	-20.293572	3.617323	-1.991141
654.214797	-369.485028	-38.717327	-85.708573	-56.302177	54.467240	0.341146	7.731942	-0.988358	0.480180	12.944919	1.400980	0.140121	17.837978	1.158788	-0.190777	21.559199	0.983831	-3.219247	46.314117	-3.171252	-7.639742	57.780002	-5.514957	5.650463	16.173836	6.371660	-2.354601	-15.783226	45.002639	-7.189221	0.367968	31.141989	4.785426	7.498726	33.914964	-2.718566	15.379633	-4.871853	-1.947576	-6.548317	-41.465989	6.177155	-2.762044	-34.012908	20.691557	-5.157515	-30.707501	-3.807469	-19.328952	4.020856	-0.965749	24.288650	2.104331	12.228134	33.417315	5.472382	12.237480	23.487376	5.667397	4.022086	-14.588939	-0.090267	-0.337739	10.563416	0.722826	-19.864408	9.290869	-4.745195	-19.671142	3.027558	-2.019155
655.156316	-370.578768	-39.340276	-84.547136	-56.346731	52.786672	3.592393	12.386100	-12.893609	3.461715	17.332120	-14.909375	3.590137	23.591393	-21.310873	4.166496	27.368604	-25.271564	6.884908	50.726282	-52.140289	51.583059	70.420060	-50.868944	7.679925	20.490753	-21.494453	35.567538	-7.579160	5.898142	23.273856	11.929466	-13.199608	19.374868	15.739010	-17.280348	0.655245	8.763400	-36.119951	14.531006	5.239368	-86.645985	30.552098	4.251219	-82.390847	32.903373	2.961891	-84.843141	-8.385463	-13.951006	2.414527	-3.562417	22.994509	2.352485	16.259227	34.761656	15.740761	11.797443	11.047306	7.125131	1.040513	-10.205318	0.358726	-6.230816	38.617181	-0.888601	-46.679757	30.670528	-32.396621	-45.811617	26.433896	-31.519208
657.284378	-371.129162	-39.474684	-83.954044	-54.742683	50.057739	3.643968	12.045279	-10.638792	2.975080	16.815036	-12.377160	3.163717	22.689919	-17.674122	4.603011	26.406253	-20.312139	2.287251	49.870763	-45.822187	29.080110	68.110646	-55.246717	9.778408	21.869623	-16.155586	34.900154	-7.779326	12.788870	24.642892	10.078175	-6.014514	29.602012	11.677519	-8.980538	2.971868	11.049207	-31.377246	16.899133	5.527505	-77.975531	39.031922	0.787646	-74.814483	44.801825	0.466493	-79.322649	-10.686735	-16.054115	2.218296	-5.959108	24.324438	0.750103	12.980377	31.901088	16.471308	8.565701	10.405240	9.751271	0.793344	-12.042657	0.329249	-5.070154	42.736733	-0.152126	-42.504165	36.038029	-27.078588	-41.184649	29.063424	-26.477877
659.763405	-371.318096	-39.391466	-82.910079	-52.456304	47.576755	3.789401	10.927332	-9.993598	3.420404	15.778131	-11.134741	3.653155	21.723868	-15.923859	5.178871	25.425437	-18.400493	5.104907	48.560317	-42.817353	36.324869	65.360378	-49.248964	9.766356	19.763287	-15.437389	32.878511	-9.618320	10.945376	21.825883	6.366327	-8.213007	23.277228	7.926497	-12.008363	2.959802	10.069342	-29.281435	17.507592	3.943680	-76.161043	37.349791	0.055024	-72.693491	42.878467	-0.983520	-76.695047	-9.886135	-15.759833	1.540990	-5.698689	25.072705	0.307267	9.062364	28.780234	11.868555	6.426792	10.294777	7.139243	1.658038	-14.595503	-0.224647	-2.432456	38.533980	0.885511	-35.363632	32.170816	-20.726558	-36.271323	28.855320	-23.915602
662.101611	-371.536238	-39.321756	-82.322932	-50.058673	45.639000	3.448946	10.635294	-9.220364	3.428714	15.365067	-11.120021	3.784078	20.775269	-15.607532	5.149308	24.454445	-17.872610	5.763452	47.876834	-39.870571	35.496574	64.449597	-46.838586	10.014380	19.068006	-15.078491	32.196617	-10.325831	11.384858	21.504296	5.439922	-8.092460	22.282218	8.159696	-11.830418	3.675350	10.207179	-28.116570	17.534237	3.851402	-74.866573	36.750516	0.214431	-71.444005	43.534316	-0.034504	-74.786892	-9.462523	-15.494952	1.500759	-5.446438	24.457476	-0.272147	8.139242	27.061714	9.972253	6.094421	10.122072	5.747429	0.622772	-14.707793	0.363366	-2.912139	36.424956	1.479039	-35.108362	30.111008	-19.730205	-35.958228	27.521938	-22.503188
664.162375	-371.613914	-38.944118	-82.394283	-48.089867	44.887438	5.422952	10.929691	-12.176837	5.585732	16.234793	-11.486800	5.878477	23.380077	-17.266825	8.429267	27.597260	-20.300974	6.006958	51.246248	-50.268935	44.742654	70.680665	-50.144641	11.827020	21.320521	-17.126475	44.379112	-9.493376	6.185024	31.651496	7.080808	-13.683360	33.101366	6.396587	-19.837947	4.238655	7.965883	-32.930829	19.368985	4.519758	-86.668015	42.809581	1.951558	-84.806692	44.982483	2.580603	-92.291601	-9.595992	-10.895688	-2.647096	-9.208701	30.542827	-1.167196	8.292965	37.055243	11.739796	5.168048	17.368331	6.534823	0.521330	-10.901694	-2.830014	-6.975777	33.840745	-1.591319	-43.023790	28.340204	-26.773921	-43.729972	25.412424	-29.681723
666.593117	-372.025750	-39.343137	-81.740049	-45.227693	40.697623	9.666165	18.694624	-10.219152	9.103081	23.023830	-22.036701	12.745351	25.357407	-27.526931	16.993357	30.602481	-29.600435	16.540044	56.331342	-52.363032	49.280493	76.612740	-56.589769	19.991175	30.954888	-23.872742	60.790097	1.642209	13.362117	53.858138	19.036681	-10.408012	58.109536	21.795518	-20.174738	13.643818	14.591153	-44.484804	23.433874	16.965255	-91.186183	52.822923	12.190837	-87.312566	57.403196	17.924036	-95.124850	-17.879042	-17.533330	-1.891186	-16.674076	30.310245	-10.801549	8.546192	35.045538	20.357819	1.558895	19.949736	9.276948	-12.965370	-1.140102	0.116600	-24.702825	53.047651	-5.696617	-69.147002	39.643970	-35.924832	-68.955194	33.106797	-40.218298
669.267669	-370.978564	-37.163089	-79.609709	-44.729292	41.320280	3.955075	11.722121	-7.758633	5.028526	16.402010	-10.421745	6.401757	20.198672	-14.222839	8.600204	23.927902	-16.432842	10.523845	46.954912	-34.886441	42.506549	63.004212	-41.648333	12.787159	16.868511	-13.345063	35.561061	-15.327042	14.427020	27.316338	3.714342	-3.396463	25.265415	8.110308	-9.202755	6.633571	4.165834	-25.870044	17.874260	-2.198464	-73.948149	32.054873	-2.472041	-68.659146	38.612911	-2.739194	-71.590532	-7.663745	-9.412721	0.862963	-1.880535	27.707541	1.422880	16.785658	23.803163	6.805449	14.491021	15.187140	3.232987	-4.637261	-16.688616	0.091272	-7.966372	32.165519	0.736227	-39.514726	27.620500	-16.664657	-41.340218	28.819297	-19.788082
671.126689	-371.722825	-36.968616	-80.153959	-43.753604	40.310631	5.199995	15.072915	-8.957685	6.770945	19.168165	-18.667788	8.966991	21.711612	-23.881398	10.501430	26.160512	-26.317317	13.452524	51.699166	-43.352870	44.014447	73.241929	-52.480458	14.644117	23.644146	-21.660090	48.980789	-5.942584	10.438434	39.518276	11.779377	-12.020252	38.989505	16.851870	-17.642668	11.276074	9.986917	-37.067692	18.745971	9.847383	-86.885589	40.459770	7.602389	-83.056317	47.762234	11.342864	-86.698335	-11.566604	-11.900575	0.362093	-9.080366	28.561764	-5.212057	9.063553	29.934124	10.122059	5.472053	15.856136	2.787236	-9.314339	-5.341203	2.417873	-15.455152	41.962634	-0.047312	-53.720217	33.768201	-28.838822	-52.333499	28.995683	-27.512303
672.598613	-371.382781	-35.070965	-80.852073	-44.222443	42.705426	3.755669	12.457014	-7.240748	5.591530	16.922089	-12.939440	7.325219	20.073182	-17.062117	8.996567	24.197180	-19.248260	13.630450	48.276803	-33.962296	48.818160	66.827038	-37.947180	13.243462	17.903400	-15.504654	37.697605	-15.005088	13.763423	28.416800	5.328138	-4.645102	24.378044	13.434985	-8.375506	8.809040	5.184615	-27.224278	18.290501	0.050257	-75.543191	32.484877	1.377405	-70.996227	39.737828	2.881126	-72.457079	-8.435692	-9.738471	0.940440	-4.377185	23.378244	-0.846699	15.497572	25.784590	8.111437	12.811580	16.532689	3.577163	-6.861988	-10.193868	0.587841	-11.695585	31.997229	-1.337264	-44.593663	26.787514	-23.628526	-43.526331	23.163784	-19.221294
673.980864	-371.978806	-34.064036	-82.040583	-44.517576	43.814011	3.824465	12.815518	-7.580024	6.046648	17.036980	-14.920022	7.893538	20.146582	-19.266275	9.109164	24.363113	-21.526387	14.129331	49.267283	-35.253037	47.400103	69.452481	-41.164364	13.732094	19.581283	-17.468646	42.101215	-12.692540	11.934965	32.327149	6.833679	-7.912992	28.429032	15.071409	-11.930633	10.121641	7.011546	-30.026896	19.055171	4.185314	-79.655143	35.551628	4.265083	-75.751123	43.640890	6.560537	-76.985207	-9.474734	-10.858599	0.532218	-6.486809	23.720613	-2.981544	11.244980	26.579588	6.707522	9.042341	16.586744	1.758154	-7.835981	-7.081918	1.669068	-12.537931	36.583232	-0.747796	-46.258337	31.917723	-26.765730	-43.719637	26.220986	-21.391102
675.019130	-372.138345	-32.545036	-83.913421	-45.112068	46.287674	4.058713	12.319021	-7.084084	6.453790	16.720832	-13.696205	8.419543	20.035647	-17.662963	9.835840	24.263866	-19.736932	15.866871	48.953541	-32.115018	51.858138	67.972981	-34.699496	14.193297	18.793544	-15.826576	40.064927	-15.125008	13.207923	30.436405	5.263226	-5.184478	25.329965	15.248927	-8.696908	10.113673	6.046963	-27.289320	19.513672	1.566122	-76.319685	34.250462	3.176441	-72.214908	42.421015	5.071262	-72.896239	-9.190293	-10.885358	0.405819	-6.133762	21.485470	-2.390228	12.929222	26.251342	7.212070	10.853392	18.165130	2.944583	-7.552111	-7.396643	0.854748	-12.479160	33.144165	-1.598664	-44.529202	29.732928	-25.690018	-41.787895	23.575551	-18.926950
676.016614	-372.550165	-31.214430	-85.882704	-45.704632	48.593454	4.072281	11.961786	-6.927044	6.692554	16.335079	-13.407284	8.704539	19.809734	-17.158102	9.974608	23.997933	-19.141548	16.374642	48.896838	-30.555391	51.551039	67.850074	-33.128011	14.490648	18.766559	-15.301262	40.100727	-15.555518	13.598722	30.625748	4.789977	-4.650267	25.309756	15.329512	-8.361408	10.337217	6.261730	-26.575966	19.964483	1.860417	-75.835113	34.818602	3.298339	-71.811575	43.674429	5.180050	-72.195071	-9.460626	-11.578174	0.184633	-6.700393	20.847824	-2.823785	11.320615	25.820384	5.942429	9.795670	18.600709	2.182420	-7.311952	-6.985542	0.929211	-11.817307	33.621244	-1.398679	-42.864314	31.527366	-25.324492	-39.620888	24.815683	-18.227477
676.843549	-372.876294	-29.824903	-88.191744	-46.289546	51.217881	4.293121	11.674646	-6.711268	7.200645	16.081138	-12.944951	9.353600	19.766251	-16.426847	10.579697	23.906549	-18.300472	17.674415	48.869988	-28.679719	53.499330	67.234916	-30.068458	14.989488	18.773808	-14.498795	39.695958	-16.390374	14.355408	30.346458	4.061037	-3.421806	24.701995	15.422701	-7.154734	10.642634	6.148943	-25.401244	20.507988	1.380422	-74.435943	34.983885	3.134825	-70.368390	44.327247	4.948656	-70.505806	-9.652918	-12.166588	-0.123763	-7.241445	19.954671	-3.130170	10.554644	25.870422	5.452972	9.389996	19.500353	2.221276	-7.158932	-6.812758	0.648248	-11.678057	32.651433	-1.544495	-41.560029	31.665791	-24.647076	-38.008943	24.482699	-17.142175
